<svg xmlns="http://www.w3.org/2000/svg" viewBox="0 0 530 334">
  <defs>
    <style>.cls-1{fill:#c7b299;}.cls-2{fill:#7ac943;}.cls-3{fill:#8cc63f;}</style>
  </defs>
  <g id="地板">
    <rect class="cls-1" x="0.5" y="0.5" width="529" height="333"/>
    <path d="M915,221V553H387V221H915m1-1H386V554H916V220Z" transform="translate(-386 -220)"/>
  </g>
  <g id="配电柜">
    <rect class="cls-2" x="0.5" y="0.5" width="65" height="65"/>
    <path d="M451,221v64H387V221h64m1-1H386v66h66V220Z" transform="translate(-386 -220)"/>
    <rect class="cls-2" x="464.5" y="0.5" width="65" height="65"/>
    <path d="M915,221v64H851V221h64m1-1H850v66h66V220Z" transform="translate(-386 -220)"/>
    <rect class="cls-3" x="0.5" y="268.5" width="65" height="65"/>
    <path d="M451,489v64H387V489h64m1-1H386v66h66V488Z" transform="translate(-386 -220)"/>
    <rect class="cls-2" x="464.5" y="268.5" width="65" height="65"/>
    <path d="M915,489v64H851V489h64m1-1H850v66h66V488Z" transform="translate(-386 -220)"/>
  </g>
</svg>
