<svg xmlns="http://www.w3.org/2000/svg" xmlns:xlink="http://www.w3.org/1999/xlink" viewBox="0 0 1920 1080">
  <defs>
    <style>.cls-1{fill:none;stroke:#000;stroke-miterlimit:10;}</style>
  </defs>
  <g id="图层_1" data-name="图层 1">
    <image width="1920" height="1080"
           xlink:href="C:%5CUsers%5Cchenluyao%5CPictures%5C01ef175f3348dea80120a82136daa4.jpg"/>
  </g>
  <g id="图层_2" data-name="图层 2">
    <polygon class="cls-1"
             points="674.5 729.5 974.5 566.5 1056.5 634.5 1054.5 727.5 759.5 875.5 676.5 814.5 674.5 729.5"/>
  </g>
  <g id="图层_3" data-name="图层 3">
    <polygon class="cls-1"
             points="596.5 562.5 824.5 477.5 883.5 529.5 885.5 596.5 659.5 696.5 602.5 646.5 596.5 562.5"/>
  </g>
  <g id="图层_4" data-name="图层 4">
    <polygon class="cls-1"
             points="437.5 410.5 765.5 303.5 857.5 359.5 866.5 434.5 528.5 555.5 456.5 481.5 437.5 410.5"/>
  </g>
  <g id="图层_5" data-name="图层 5">
    <polygon class="cls-1"
             points="289.5 277.5 854.5 110.5 948.5 162.5 960.5 231.5 365.5 424.5 309.5 342.5 289.5 277.5"/>
  </g>
  <g id="图层_6" data-name="图层 6">
    <polygon class="cls-1"
             points="1048.5 216.5 1417.5 414.5 1420.5 473.5 1254.5 555.5 898.5 325.5 906.5 258.5 1048.5 216.5"/>
  </g>
</svg>
